
<global>
amp_veltrack=0
ampeg_release=0.35
</global>

<group>
group_label=Group_0-64
lpc_hicc1=64
lpc_locc1=0

<region>
hikey=A#5
hivel=127
lokey=A5
lovel=1
lpc=s/3gQS3SDsLkp9ZBHTt5wXqKkUHaaE3BJBAiQbrcG8CuITpA+NTmvQqT4D+ag+M/gwCyPwAmAkD4R2w/t3gOP6TJ6T9Mgd8+D0iuQABSfsB5TZ5AciOyvzb3CEEnxgzB
lpc_rms=-31.87
pitch_keycenter=A#5
sample=Piccolo_tremolo_PP_A#4.opus
</region>

<region>
hikey=A#6
hivel=127
lokey=A6
lovel=1
lpc=E6bfQfzNmsFEX51BStwfwZJgakHxZM2/gAc5QeNtq7+uUA1BlpjKP2IdhUA+zdFA2uj3wCp9hsBKozJB9upywOYcuUC6tJu/ImsSv8UPJ0DBxk6/0RJKQJoj0L9WhJxA
lpc_rms=-27.02
pitch_keycenter=A#6
sample=Piccolo_tremolo_PP_A#5.opus
</region>

<region>
hikey=C6
hivel=127
lokey=B5
lovel=1
lpc=smaaQU3em8GRwpVBacVZwaIVSUFkRO7AZ24DQTf7ecDQTkJANfYivpEHC0Ds4Bm8CP01QLGahb3XOhM/JPDNP6SqwD/GQu68HEgUQGBqWj/A0BU/nqKdPjw20MAAUAU/
lpc_rms=-36.41
pitch_keycenter=C6
sample=Piccolo_tremolo_PP_C5.opus
</region>

<region>
hikey=C7
hivel=127
lokey=B6
lovel=1
lpc=qjrgQRGetcEbPZlBhlAYwUbHNUEgniI/eoQVQcmqJD/hBa5A5D18QOzVtUCkOw/BIjHnQBdFykC1wThAIMuFQAfXHEC8OP2+BJhvQGBChUDx6tu+8fntQETHA8FlQ59A
lpc_rms=-27.50
pitch_keycenter=C7
sample=Piccolo_tremolo_PP_C6.opus
</region>

<region>
hikey=D6
hivel=127
lokey=C#6
lovel=1
lpc=BKpEQh8yL8LTF/FB377MwQ33kEGTZ7jAjtZOQa2tBME160xB8srDwF7PW0EAXdPAKR8yQeGUksDaaxpBkLrxv5jAwUCtetg/qgC7QKzG0b8Rap7B14MOQKJ1xkDLR+5A
lpc_rms=-30.34
pitch_keycenter=D6
sample=Piccolo_tremolo_PP_D5.opus
</region>

<region>
hikey=D7
hivel=127
lokey=C#7
lovel=1
lpc=8Tg8QntR/MER7e9BSf3dwDWzjUEJzGJB+EjDQDXECEEInp5AfyImQdcsw8GPqIxBNLycv7vnwT/DaR5AO44BwXOtskAQQxhA6+50QIGz1EB/5CzB89tFQXSqMcByLINA
lpc_rms=-21.84
pitch_keycenter=D7
sample=Piccolo_tremolo_PP_D6.opus
</region>

<region>
hikey=E5
hivel=127
lokey=D5
lovel=1
lpc=/NZBQcQ9pMEPAY1BI3plwSUwVEGH2yLByW8IQVkwC8GCpQtBMrbewOQDvkBgFoHAT0WOQO11LsDwfwk/bdRrPVk8XD/s1lK/tK6EP+CAMb9xGuc+r/Ypvsx/BD9536E/
lpc_rms=-37.23
pitch_keycenter=E5
sample=Piccolo_tremolo_PP_E4.opus
</region>

<region>
hikey=E6
hivel=127
lokey=D#6
lovel=1
lpc=XPyZQci2jsEnGYJBQO4owaTEEkHO10DAPw65QPRGFMBDSbRAoLMCv9SaU0BltW0/Pg85QCAibD/e5xVA6ATrPxFTeUBo+5DAzW1vwOka0j9nwcA/Xu78P23Nnb9NpIU/
lpc_rms=-32.73
pitch_keycenter=E6
sample=Piccolo_tremolo_PP_E5.opus
</region>

<region>
hikey=E7
hivel=127
lokey=D#7
lovel=1
lpc=gM14Qt1fFcJhry1CDjpSweGPCUK5HtdAIDWYQdCiCkBaBzdBUNcZwiRO6kGx97PBN0RfQc4LLcGEybRAdhH/wCd9tEBnUfi/JIVIwQuTRkFBht7AMndtQOq3HsHTauPA
lpc_rms=-17.36
pitch_keycenter=E7
sample=Piccolo_tremolo_PP_E6.opus
</region>

<region>
hikey=F#5
hivel=127
lokey=F5
lovel=1
lpc=y+PbQNnwN8GS1RhBuO3twG2xA0HM2sXA7yabQAdCasBvbzhABAUSwPchDkAszzO/SkWhPztgJL+2ZZM+RUcOvk1mlroQUE0/8L8fvsVRsT8tRYG/wuf+Pq/0p7/E8QhA
lpc_rms=-42.08
pitch_keycenter=F#5
sample=Piccolo_tremolo_PP_F#4.opus
</region>

<region>
hikey=F#6
hivel=127
lokey=F6
lovel=1
lpc=GJhlQXIsMMGqMxBBPb6WwG3aykCe8aY/1fB4QIfpjD/gWAtAjl0KQAfE0j+HYhdA0c2/P5AGSUC38PU/MFISwK48H8AZmY0/whs4QM4OzD4dVnO/ZOw9v1pAor92XhU/
lpc_rms=-34.10
pitch_keycenter=F#6
sample=Piccolo_tremolo_PP_F#5.opus
</region>

<region>
hikey=F#7
hivel=127
lokey=F7
lovel=1
lpc=jHmCQStNSsHZRndBqrSewLwwMkF8RZS/xIoBQZDREz9+Vrw/SXUEQVzDWb9BLq5A7oCuP6gAPEAqnq1AKQvJvrL6PEBc3KpAMGaTP5TGmEBnsTo/y6aTQHaLlD7DkgQ+
lpc_rms=-14.56
pitch_keycenter=F#7
sample=Piccolo_tremolo_PP_F#6.opus
</region>

<region>
hikey=G#5
hivel=127
lokey=G5
lovel=1
lpc=1v+tQcmP/sHWI+tBL2ehweucuEH1UIrBpPBRQWE/nMDO1KVA/gwov+Cu6T9bZQ9AT34hP6ug2z8hTK0/1CGWP5WxDEBuEi0/C63MP2jAAECZGGg/K3I2QD2AecCAMQRB
lpc_rms=-33.20
pitch_keycenter=G#5
sample=Piccolo_tremolo_PP_G#4.opus
</region>

<region>
hikey=G#6
hivel=127
lokey=G6
lovel=1
lpc=92jkQA/LzMCTJb5ArRYjwF+RUUDtpd2+HBMRQDfng75CAr4/SS0Pv72tsT9LGlS+0cS3Pw+p370qfj/Ay/TePv2Bjz+G1+e/1jxYP5bKib/3/Uq/2DQFP9w2S782cBM/
lpc_rms=-38.67
pitch_keycenter=G#6
sample=Piccolo_tremolo_PP_G#5.opus
</region>

<region>
hikey=G#7
hivel=127
lokey=G7
lovel=1
lpc=caoYQdxko8BbZgJBomn5vtkRpkBelf4/almOQFoiKz2eTbBATR6iP7ZQgkDiNM4/CR5XQOKRGkBE2Uk/BVF6QAONuT9emyxA/+0VQBp13j9X+aI/rp7Mvxkz7j+/GYS/
lpc_rms=-18.39
pitch_keycenter=G#7
sample=Piccolo_tremolo_PP_G#6.opus
</region>
</group>

<group>
group_label=Group_65-127
lpc_hicc1=127
lpc_locc1=65

<region>
hikey=A#5
hivel=127
lokey=A5
lovel=1
lpc=FRitQYGf7cExE+lBSROZwaL7k0EQ+0nB2nE+QTbSocDRsLpAQyAxwFm9xUDokvy/NpJUQCWMJ79gf41ALwFOv96MYUCrx6y/d0+8QK0RY8BRecdA7ZxowGcWFEG2T8nA
lpc_rms=-24.54
pitch_keycenter=A#5
sample=Piccolo_tremolo_FF_A#4.opus
</region>

<region>
hikey=A#6
hivel=127
lokey=A6
lovel=1
lpc=G0LHQc3t1cFNoahBVawdwSS1J0GMY5S/P/6TQFrO0EAqeCjAdgQRQc1MasBpDjRBOgNIwbGCjj+puGtBs94owWkYOEHwcu3A83QTQU1X6sCnz6JAXbPSv8hwEkB73Yo/
lpc_rms=-21.32
pitch_keycenter=A#6
sample=Piccolo_tremolo_FF_A#5.opus
</region>

<region>
hikey=C6
hivel=127
lokey=B5
lovel=1
lpc=kwjgQZlHEcJBbglCaw6nwc7Ut0Fz0E3BFhiEQSVE0sB9iRlBPylkv+zH7EB0mp+/p1ngQLZk9D9FMABAuULKQFb6zD/UlkZAz1gdQO/NuUDFK4k/bwvnQPEog8HAcEtB
lpc_rms=-22.54
pitch_keycenter=C6
sample=Piccolo_tremolo_FF_C5.opus
</region>

<region>
hikey=C7
hivel=127
lokey=B6
lovel=1
lpc=AI8YQuUuMcKSsxdCzXRjwXYwr0FEgqPAvfR8QZDbYz+k4ORAzE5oQL9PWEEg5IjB612NQam0C0ALNtC/987NQHoaDr+a3XVAVSwRv3NL+UASHnu/qPgIQUSpd8G4MW9B
lpc_rms=-15.88
pitch_keycenter=C7
sample=Piccolo_tremolo_FF_C6.opus
</region>

<region>
hikey=D6
hivel=127
lokey=C#6
lovel=1
lpc=ow7uQUpK6MF9K7dBgj9ywe2Sb0E0iL7Ahnf6QB9CPT4AIhlAdJZyQDqUmD8grGxAdgQDQFXgJED2BUpAsrq0P+xgaEDVfy8/1tnbQCxIQ8BBGivB9q1SQOdnnkAUgv0+
lpc_rms=-26.30
pitch_keycenter=D6
sample=Piccolo_tremolo_FF_D5.opus
</region>

<region>
hikey=D7
hivel=127
lokey=C#7
lovel=1
lpc=mbKSQa5uXsFF9lFBD4mAwCYJBEHLQyO+OOe7QOcyD0BgbDZAW4R+QK6kKcEspxlBL9YTwDCsQUAWvlA/DoIxPwc9zj9ie9I98n3gP5QgNUCjWjnA7dVRQPiLyz5DIm69
lpc_rms=-25.20
pitch_keycenter=D7
sample=Piccolo_tremolo_FF_D6.opus
</region>

<region>
hivel=127
key=E5
lovel=1
lpc=25YWQViEkMFa34dByP1HwQh4IkFPHO7AZ0WWQGxxhcBgAqpAdkKIwJmpSEDCwCbA1gJ4QFjAWMB3LglAzW6fv6QWoD8onXK/8iBTP1ySC7+qTcg+aKzcPa4/fb2phno/
lpc_rms=-31.44
sample=Piccolo_tremolo_FF_E4.opus
</region>

<region>
hikey=E6
hivel=127
lokey=D#6
lovel=1
lpc=AIgxQf0yX8GEjzNB/b7RwFUQ3kAfeYTAMP6DQJ+sPsCL5YxAOyfzv1q5NUCho7e/TnI1QMB8lL9L/gdA+oHuPYFW7T/8/l7ANlCwv14PRUAeE64+AJyrv2LsHj67ahw/
lpc_rms=-30.55
pitch_keycenter=E6
sample=Piccolo_tremolo_FF_E5.opus
</region>

<region>
hikey=E7
hivel=127
lokey=D#7
lovel=1
lpc=V23gQdMgs8EYe6RBuLy5wHSXZkErC7Q+Vxy5QPUV5EBhiai/gq3+wNSyHUEOhlvA18iLQMBhfsCyDdw/hBsJwNW8iT8V0ta/vfnJwJ9cCUGT9MPAQgEXP10gDsDCn0E/
lpc_rms=-19.73
pitch_keycenter=E7
sample=Piccolo_tremolo_FF_E6.opus
</region>

<region>
hikey=F#5
hivel=127
lokey=F5
lovel=1
lpc=YzL+QF3bc8FujGRB9LYdwZXqF0GHOgHBama1QOCWO8BJ9OA/bLE2v9uFOj+X7ak+xXyavWkviz6wjV4+HqSePeVD67xV+DU/eP7Gvp0Ahj+fWQa/AxyxP5rEJMB8HSBA
lpc_rms=-32.67
pitch_keycenter=F#5
sample=Piccolo_tremolo_FF_F#4.opus
</region>

<region>
hikey=F#6
hivel=127
lokey=F6
lovel=1
lpc=6wd7QdKAp8FOAYlBsukMwYmmA0F7KYjAW36kQF9SM8C2hIZA87INPtd7pj9sJoU/Sny9P/lRpD+M7dU/ughPwJ5RVsCm1thASXWvv6lDib88gYw/6bKBvxwQ3D/f2Sq/
lpc_rms=-26.89
pitch_keycenter=F#6
sample=Piccolo_tremolo_FF_F#5.opus
</region>

<region>
hikey=F#7
hivel=127
lokey=F7
lovel=1
lpc=jHmCQStNSsHZRndBqrSewLwwMkF8RZS/xIoBQZDREz9+Vrw/SXUEQVzDWb9BLq5A7oCuP6gAPEAqnq1AKQvJvrL6PEBc3KpAMGaTP5TGmEBnsTo/y6aTQHaLlD7DkgQ+
lpc_rms=-14.56
pitch_keycenter=F#7
sample=Piccolo_tremolo_FF_F#6.opus
</region>

<region>
hikey=G#5
hivel=127
lokey=G5
lovel=1
lpc=izmBQQrRzsE8I89BKxh/wYtVa0EnIUHB3ENFQR5q58BUFOxA3zKMwOGGv0DUqyfA5SpEQBF8v74ZEjdAwwV8vtpMjj/+RQdAMD6HvnwV3T9PiIs/iEk9QP+FlcAocuFA
lpc_rms=-25.79
pitch_keycenter=G#5
sample=Piccolo_tremolo_FF_G#4.opus
</region>

<region>
hikey=G#6
hivel=127
lokey=G6
lovel=1
lpc=umnIQQ/nBsLlKu1BZEaLwTurgUFUVj3B8ElQQZ+q08CyUQ5BVUqNwDFNckDXiJJA+M6rPhQHqUDYaYfB0a6PQf2IisBXXc0/0xDaPjunCUBOlAJAuKuIvwE1vT70GmNA
lpc_rms=-22.18
pitch_keycenter=G#6
sample=Piccolo_tremolo_FF_G#5.opus
</region>

<region>
hikey=G#7
hivel=127
lokey=G7
lovel=1
lpc=caoYQdxko8BbZgJBomn5vtkRpkBelf4/almOQFoiKz2eTbBATR6iP7ZQgkDiNM4/CR5XQOKRGkBE2Uk/BVF6QAONuT9emyxA/+0VQBp13j9X+aI/rp7Mvxkz7j+/GYS/
lpc_rms=-18.39
pitch_keycenter=G#7
sample=Piccolo_tremolo_FF_G#6.opus
</region>
</group>